<svg width="1024" height="1024" xmlns="http://www.w3.org/2000/svg" preserveAspectRatio="xMidYMid meet">
 <defs>
  <linearGradient y2="0" x2="0.4375" y1="1" x1="0.460938" id="svg_12">
   <stop offset="0.570313" stop-color="#d15b34"/>
   <stop offset="1" stop-color="#2ea4cb"/>
   <stop offset="1" stop-color="#2ea4cb"/>
  </linearGradient>
  <linearGradient y2="0" x2="0.4375" y1="1" x1="0.460938" id="svg_13">
   <stop offset="0.570313" stop-color="#d15b34"/>
   <stop offset="1" stop-color="#2ea4cb"/>
   <stop offset="1" stop-color="#2ea4cb"/>
  </linearGradient>
  <linearGradient y2="0" x2="0.4375" y1="1" x1="0.460938" id="svg_14">
   <stop offset="0.570313" stop-color="#d15b34"/>
   <stop offset="1" stop-color="#2ea4cb"/>
   <stop offset="1" stop-color="#2ea4cb"/>
  </linearGradient>
  <linearGradient y2="0" x2="0.4375" y1="1" x1="0.460938" id="svg_15">
   <stop offset="0.570313" stop-color="#d15b34"/>
   <stop offset="1" stop-color="#2ea4cb"/>
   <stop offset="1" stop-color="#2ea4cb"/>
  </linearGradient>
  <linearGradient y2="0" x2="0.4375" y1="1" x1="0.460938" id="svg_16">
   <stop offset="0.570313" stop-color="#d15b34"/>
   <stop offset="1" stop-color="#2ea4cb"/>
   <stop offset="1" stop-color="#2ea4cb"/>
  </linearGradient>
  <linearGradient y2="0" x2="0.4375" y1="1" x1="0.460938" id="svg_17">
   <stop offset="0.570313" stop-color="#d15b34"/>
   <stop offset="1" stop-color="#2ea4cb"/>
   <stop offset="1" stop-color="#2ea4cb"/>
  </linearGradient>
 </defs>
 <g>
  <title>background</title>
  <rect fill="#4c4c4c" id="canvas_background" height="1026" width="1026" y="-1" x="-1"/>
 </g>
 <g>
  <title>Layer 1</title>
  <path fill="url(#svg_12)" id="svg_2" d="m467.912506,72.999985c-0.200012,1.400002 -0.700012,7.700005 -1,14c-1.399994,28 -11,56.5 -27.700012,82c-10.699982,16.400009 -22.599976,29.800003 -56.5,63.5c-18.799988,18.699997 -37.699982,38.500015 -42,44.000015c-19,24 -29.5,45.299988 -34.5,69.799988c-4,19.799988 -3.5,49.600006 1.200012,72.600006c1,5.100006 1.899994,9.5 1.899994,9.700012c0,0.199982 -0.899994,0.399994 -2,0.399994c-1.299988,0 -7.299988,-5.100006 -15.899994,-13.399994c-7.600006,-7.300018 -14.799988,-13.700012 -16,-14.100006c-2.399994,-0.700012 -7,1.699982 -7.200012,3.799988c-0.599976,6.299988 10.900024,32.5 22.800018,52.100006c17.899994,29.399994 43.399994,56.800018 95.799988,103.100006c57.600006,50.900024 83,80.5 102,119c14.5,29.299988 21.600006,57.099976 24.5,96c0.700012,8.200012 1.600037,15.5 2.200012,16.200012c1.599976,2 15.799988,7 25.299988,9c6.900024,1.399963 13.400024,1.799988 28,1.700012c21.600037,0 32.299988,-1.800049 45.799988,-7.400024l7.800049,-3.200012l-0.600037,-5.700012c-1.799988,-15.799988 -5.899963,-41.899963 -8.200012,-52.099976c-8.399963,-37.900024 -22.899963,-72.299988 -43.099976,-102.5c-21.700012,-32.400024 -41.700012,-53.799988 -89.200012,-95.5c-58.299988,-51 -74.100006,-67.100006 -91.399994,-92.899994c-16.5,-24.700012 -23,-46.500031 -23.100006,-77.100006c0,-19.5 1.200012,-27.200012 7,-44.600006c8.100006,-24.5 17.899994,-39.300018 52.100006,-79.400009c24.600006,-28.800003 33.600006,-41.199997 41.700012,-57.5c9.899994,-20.099991 13.199982,-35.199997 12.399994,-58.5c-0.5,-16.299995 -1.800018,-24.199997 -6.899994,-42c-3.600006,-12.699997 -4.400024,-14.400002 -5.200012,-11z"/>
  <path fill="url(#svg_13)" id="svg_3" d="m507.3125,179.499985c0,0.900009 1.100006,3.800003 2.5,6.5c1.399994,2.699997 3.700012,8.800003 5.100037,13.699997c3.899963,12.700012 4.299988,36.300003 1.5,72c-1.200012,14.399994 -2.100037,28.200012 -2.100037,30.800018c0,8 8,22.299988 30,53.399994c31.600037,44.899994 38.200012,59.899994 39.700012,90.600006l0.599976,13.5l4.400024,-9.600006c4.900024,-10.799988 7.799988,-15.399994 9.700012,-15.399994c1.399963,0 6.200012,10 9.700012,20.199982c8,23.5 9,56.100006 2.799988,86.800018c-4.900024,24.200012 -17,55.099976 -31.100037,79.299988l-3.899963,6.700012l6,9c3.299988,5 11.5,19.900024 18.200012,33.299988c13.199951,26.299988 19.399963,37.5 23.399963,42.200012l2.5,3l8,-8.5c20.799988,-22 40.299988,-52 53.900024,-83.200012c26.099976,-59.400024 33.299988,-120.799988 21,-178.799988c-2.299988,-10.800018 -7.600037,-29.5 -9.100037,-32.400024c-1,-1.899994 -1.099976,-1.899994 -2.399963,-0.099976c-3.100037,4.199982 -5.400024,13.299988 -8.299988,32.600006c-2.5,16.699982 -3.600037,21.5 -6.100037,26.5c-1.599976,3.299988 -3.799988,6.799988 -4.799988,7.699982c-1.799988,1.700012 -1.900024,1.300018 -3.099976,-11c-3.600037,-37.600006 -15.200012,-66.200012 -38.700012,-95.399994c-3.799988,-4.800018 -17.799988,-20.300018 -31,-34.5c-31.200012,-33.5 -34,-36.800018 -42.900024,-50c-13.099976,-19.300018 -21.200012,-38.200012 -25.399963,-59.200012c-1.700012,-8.299988 -4.100037,-24.899994 -4.100037,-29c0,-0.599991 -0.599976,-1.199997 -1.399963,-1.199997c-2.200012,0 -6.400024,-3.800003 -12.300049,-11.399994c-3.099976,-3.900009 -6.299988,-7.699997 -7.099976,-8.400009c-2.200012,-1.699997 -5.200012,-1.5 -5.200012,0.300003z"/>
  <path fill="url(#svg_14)" id="svg_4" d="m462.3125,227.199982c0,2.600006 -7.600006,16.900009 -12.199982,22.900009c-2.400024,3.099991 -11.800018,13.699997 -21,23.499985c-18.700012,20.100006 -22.100006,24.200012 -27.100006,33.100006c-7,12.399994 -10.200012,24.200012 -11.200012,41.399994l-0.699982,10.400024l8,10.5c9.199982,12.199982 24.299988,27 32.5,31.899994c10.399994,6.100006 17.399994,8.399994 27.199982,8.799988c10.200012,0.400024 10.100006,0.400024 -0.699982,-5.699982c-8.900024,-5 -18.800018,-15 -22.700012,-23.100006c-9.799988,-20 -7.5,-44.700012 8.399994,-89.399994c17,-47.800018 21.899994,-63.500015 20.100006,-65.200012c-0.299988,-0.399994 -0.600006,0.100006 -0.600006,0.899994z"/>
  <path fill="url(#svg_15)" id="svg_5" d="m459.412506,278.899994c-10.799988,21.299988 -11.799988,42 -3.100006,63.699982c3.300018,8.300018 4.300018,10.300018 20.100006,38.400024c14.399994,25.699982 18.899994,37.799988 18.899994,51.899994c0,4.899994 0.899994,4.799988 -10.600006,0.700012c-13.299988,-4.800018 -27.699982,-5.5 -36.399994,-1.900024l-3.5,1.400024l8.700012,4.599976c13.899994,7.200012 22.5,17.800018 28.399994,34.800018c2.5,7.199982 2.799988,9.299988 2.700012,21.5c0,10.5 -0.5,15.199982 -2.200012,21.399963c-1.100006,4.400024 -2.100006,8.400024 -2.100006,9.100037c0,0.599976 2.800018,3.099976 6.300018,5.5c3.399994,2.399963 11.599976,10 18.199982,16.899963c24.200012,25.300049 34.400024,35.100037 42.100037,40.100037c4.299988,2.799988 8.5,4.899963 9.299988,4.799988c0.799988,-0.200012 4.200012,-3.5 7.399963,-7.299988c7,-8.299988 16.400024,-26.799988 20.400024,-40c2.5,-8.400024 2.700012,-10.200012 2.700012,-27c-0.100037,-13.399994 -0.5,-19.100006 -1.600037,-22.5c-1.299988,-3.800018 -1.599976,-4.200012 -2.299988,-2.5c-5.599976,14.399994 -11,22.200012 -17.599976,25.5c-3.700012,1.899963 -11.900024,3.799988 -11.900024,2.700012c0,-0.300049 1.299988,-5.700012 2.900024,-12.000031c8.599976,-33.099976 9.700012,-58.299988 3.599976,-82.299988c-4.5,-17.5 -14.5,-35.100006 -28.5,-49.800018c-4.099976,-4.299988 -16.299988,-15 -27,-23.599976c-27.299988,-22 -36,-31.900024 -41,-46.600006c-2.199982,-6.399994 -2.799988,-23.200012 -1,-29.300018c1.600006,-5.5 0.399994,-4.799988 -2.899994,1.800018z"/>
  <path fill="url(#svg_16)" id="svg_6" d="m746.112488,436.299988c-12.399963,25.899994 -14.099976,33 -14,56.700012c0,14.399994 0.800049,20.899963 7.200012,64c3.799988,26 4.299988,53.200012 1,66.599976c-4.399963,18.300049 -12.599976,36 -23.5,50.5c-8.5,11.400024 -28.200012,30.200012 -51.299988,48.900024c-10.5,8.5 -19.099976,15.900024 -19.099976,16.400024c-0.200012,1.799988 19.5,-0.200012 31.899963,-3.300049c6.900024,-1.699951 16,-3.399963 20.299988,-3.799988c9.400024,-0.700012 9.400024,-0.700012 3.700012,11.400024c-5.200012,11.099976 -11,19 -20.599976,28.399963c-30.799988,29.800049 -85.600037,41.700012 -142.200012,30.800049c-30.600006,-5.900024 -62.100006,-22.400024 -75.700012,-39.600037c-11,-13.899963 -14.799988,-24.5 -14.899994,-40.799988c-0.100006,-16.900024 4.399994,-30.400024 16.299988,-48.799988l6.300018,-9.700012l-7.800018,-9.799988c-20.199982,-25 -36.299988,-41.700012 -48.099976,-49.900024l-5.5,-3.799988l-5.900024,6.5c-14,15.5 -28.299988,39.599976 -34.299988,58.200012c-7.799988,23.899963 -8.5,51.5 -2.100006,76.799988c15.200012,60 70.700012,111.5 138.399994,128.400024c20.600006,5.200012 28.200043,6 53.100006,6c26.600037,0 35.600037,-1.200012 52.700012,-6.900024c12.799988,-4.299988 18.599976,-7.299988 45.799988,-23.5c12.100037,-7.200012 26.5,-15.399963 32,-18.200012l10,-5.099976l8.5,-12.600037c9.200012,-13.699951 46.400024,-63.599976 48.200012,-64.699951c0.799988,-0.5 0.900024,5.199951 0.400024,21.899963c-0.300049,12.5 -0.300049,22.700012 0.199951,22.700012c1.5,0 20.200012,-44.400024 27,-64.299988c6.200012,-18 9.600037,-32.299988 12.200012,-51.100037c4.600037,-33.899963 0.700012,-62.299988 -13.799988,-101.099976c-11.099976,-29.600037 -20.700012,-62.700012 -25.900024,-89c-2.5,-13 -2.699951,-15.800018 -2.799988,-39.300018c0,-13.799988 0,-25.199982 0,-25.199982c0,0.100006 -3.5,7.399994 -7.700012,16.299988z"/>
  <path fill="url(#svg_17)" id="svg_7" d="m250.612503,467.600006c-0.399994,2.199982 -0.800003,10.899994 -0.800003,19.399994c0,17.399994 1.400009,25.299988 9.100006,53.099976c3.600006,13.299988 5.200012,17.299988 9.799988,24.900024c6,10 9.700012,19 12.200012,29.5c2.399994,10.599976 1.600006,43.200012 -1.5,57.5c-2.600006,12 -9.600006,35.900024 -20.600006,70.5c-14.5,45.700012 -17.599991,60.900024 -17.699997,85.5c-0.100006,12.799988 0.300003,17.100037 2.199997,24.5c2.699997,11 8.400009,23.5 14.700012,32.299988c5.100006,7.200012 19,21.800049 19.899994,21c0.200012,-0.299988 0,-3.599976 -0.700012,-7.399963c-0.599976,-3.799988 -1.099976,-13.700012 -1.099976,-21.900024c0,-12.599976 0.299988,-16.099976 2.099976,-21.5c2.400024,-7.399963 6.100006,-14.399963 7.600006,-14.200012c0.5,0.100037 1.700012,3.800049 2.700012,8.400024c7.399994,36.799988 32.399994,71.700012 68.600006,95.799988c24.099976,16.100037 49.899994,26.200012 80.199982,31.600037c14.399994,2.5 45.100006,2.299988 59.300018,-0.5c41.399994,-8.300049 74.399994,-31.400024 94.999969,-66.900024c2,-3.400024 3.300049,-6.200012 2.900024,-6.200012c-0.400024,0.100037 -3.599976,0.799988 -7.200012,1.600037c-3.599976,0.799988 -14,1.699951 -23.5,2.099976c-22.299988,0.700012 -34.5,-1 -64.600006,-8.700012c-34,-8.799988 -52.599976,-12.700012 -68.399994,-14.299988l-14,-1.400024l-18,-9.799988c-32.199982,-17.399963 -37,-20.899963 -46,-32.899963c-7,-9.300049 -10.899994,-16.500061 -14.600006,-26.700012c-5.399994,-14.900024 -7,-24.5 -7.599976,-46c-0.600006,-21.800049 0.099976,-31.800049 5.199982,-75.900024c3.300018,-28.599976 5.600006,-56.799988 5.399994,-68l0,-5.5l-1.699982,8c-1.700012,8.099976 -5.899994,16.799988 -8.600006,17.799988c-1.100006,0.5 -1.700012,-0.399963 -2.100006,-3.099976c-5.399994,-33.100037 -11.699982,-46.700012 -38.899994,-83.100037c-22.200012,-29.699982 -30.299988,-44.099976 -35.199997,-62.599976c-1.400009,-5.5 -2.800003,-10.200012 -2.900009,-10.399994c-0.199997,-0.100006 -0.699997,1.399994 -1.199997,3.5z"/>
 </g>
</svg>